{
  "accessors": [
    {
      "bufferView": 1,
      "componentType": 5126,
      "count": 384,
      "max": [
        0.98478001356124878,
        0.98478001356124878,
        0.11375000327825546
      ],
      "min": [
        -0.98478001356124878,
        -0.98478001356124878,
        -0.11375000327825546
      ],
      "type": "VEC3"
    },
    {
      "bufferView": 1,
      "byteOffset": 4608,
      "componentType": 5126,
      "count": 384,
      "max": [
        0.99991106986999512,
        0.99991106986999512,
        0.99800121784210205
      ],
      "min": [
        -0.99991106986999512,
        -0.99991106986999512,
        -0.99800121784210205
      ],
      "type": "VEC3"
    },
    {
      "bufferView": 0,
      "componentType": 5125,
      "count": 576,
      "max": [
        383
      ],
      "min": [
        0
      ],
      "type": "SCALAR"
    }
  ],
  "asset": {
    "extras": {
      "author": "Jiří Kuba (https://sketchfab.com/kuba.jirka)",
      "license": "CC-BY-4.0 (http://creativecommons.org/licenses/by/4.0/)",
      "source": "https://sketchfab.com/3d-models/cog-158a1e27214841589dce6d7361f1a422",
      "title": "Cog"
    },
    "generator": "Sketchfab-6.31.0",
    "version": "2.0"
  },
  "bufferViews": [
    {
      "buffer": 0,
      "byteLength": 2304,
      "byteOffset": 0,
      "name": "floatBufferViews",
      "target": 34963
    },
    {
      "buffer": 0,
      "byteLength": 9216,
      "byteOffset": 2304,
      "byteStride": 12,
      "name": "floatBufferViews",
      "target": 34962
    }
  ],
  "buffers": [
    {
      "byteLength": 11520,
      "uri": "scene.bin"
    }
  ],
  "materials": [
    {
      "doubleSided": true,
      "emissiveFactor": [
        0,
        0,
        0
      ],
      "name": "CogMaterial",
      "pbrMetallicRoughness": {
        "baseColorFactor": [
          0.80000001192092896,
          0.80000001192092896,
          0.80000001192092896,
          1
        ],
        "metallicFactor": 1,
        "roughnessFactor": 0.30926067073170727
      }
    }
  ],
  "meshes": [
    {
      "name": "Cog_0",
      "primitives": [
        {
          "attributes": {
            "NORMAL": 1,
            "POSITION": 0
          },
          "indices": 2,
          "material": 0,
          "mode": 4
        }
      ]
    }
  ],
  "nodes": [
    {
      "children": [
        1
      ],
      "name": "RootNode (gltf orientation matrix)",
      "rotation": [
        -0.70710678118654746,
        -0,
        -0,
        0.70710678118654757
      ]
    },
    {
      "children": [
        2
      ],
      "name": "RootNode (model correction matrix)"
    },
    {
      "children": [
        3
      ],
      "name": "Root"
    },
    {
      "children": [
        4
      ],
      "name": "Cog"
    },
    {
      "mesh": 0,
      "name": "Cog_0"
    }
  ],
  "scene": 0,
  "scenes": [
    {
      "name": "OSG_Scene",
      "nodes": [
        0
      ]
    }
  ]
}

